# xmcd
#
# Track frame offsets: 
#        150
#        24923
#        48442
#        66199
#        93977
#        114201
#        128534
#        146257
#        163366
#        184146
#        202603
#
# Disc length: 2919 seconds
#
# Revision: 0
# Processed by: cddbd v1.5.2PL0 Copyright (c) Steve Scherf et al.
# Submitted via: ExactAudioCopy v1.0b4
#
DISCID=870b650b
DTITLE=Raul Malo - sinners and saints
DYEAR=2010
DGENRE=Country
TTITLE0=Sinners and Saints
TTITLE1=Living For Today
TTITLE2=San Antonio Baby
TTITLE3=Til I Gain Control Again
TTITLE4=Staying Here
TTITLE5=Superstar
TTITLE6=Sombras
TTITLE7=Matter Much To You
TTITLE8=Saint Behind The Glass
TTITLE9=Mrs. Brown
TTITLE10=Better Off In Texas (feat. Ray Benson)
EXTD=
EXTT0=
EXTT1=
EXTT2=
EXTT3=
EXTT4=
EXTT5=
EXTT6=
EXTT7=
EXTT8=
EXTT9=
EXTT10=
PLAYORDER=
